<svg xmlns="http://www.w3.org/2000/svg" xmlns:xlink="http://www.w3.org/1999/xlink" viewBox="0,0,256,256" width="96px" height="96px"><g transform="translate(-7.68,-7.68) scale(1.06,1.06)"><g fill-opacity="0" fill="#dddddd" fill-rule="nonzero" stroke="none" stroke-width="1" stroke-linecap="butt" stroke-linejoin="miter" stroke-miterlimit="10" stroke-dasharray="" stroke-dashoffset="0" font-family="none" font-weight="none" font-size="none" text-anchor="none" style="mix-blend-mode: normal"><path d="M7.24528,248.75472v-241.50943h241.50943v241.50943z" id="bgRectangle"></path></g><g fill="#000000" fill-rule="nonzero" stroke="none" stroke-width="1" stroke-linecap="butt" stroke-linejoin="miter" stroke-miterlimit="10" stroke-dasharray="" stroke-dashoffset="0" font-family="none" font-weight="none" font-size="none" text-anchor="none" style="mix-blend-mode: normal"><g transform="scale(5.33333,5.33333)"><path d="M15,6.438h11v11.375h-11c-1.657,0 -3,-1.343 -3,-3v-5.375c0,-1.657 1.343,-3 3,-3z"></path><path d="M15,29.188h11v11.375h-11c-1.657,0 -3,-1.343 -3,-3v-5.375c0,-1.657 1.343,-3 3,-3z"></path><path d="M26,17.812h11c1.657,0 3,1.343 3,3v5.375c0,1.657 -1.343,3 -3,3h-11z"></path></g></g></g></svg>